<svg width="315" height="231" viewBox="0 0 315 231" fill="none" xmlns="http://www.w3.org/2000/svg">
<path d="M279.205 151.295V172.772H257.727V151.295H279.205ZM250.568 79.7036H229.091V72.5445C229.091 61.1523 233.616 50.2266 241.672 42.1711C249.728 34.1155 260.653 29.59 272.045 29.59C283.438 29.59 294.363 34.1155 302.419 42.1711C310.474 50.2266 315 61.1523 315 72.5445C315 86.4332 307.841 99.4627 296.53 107.051L292.234 109.772C284.073 115.499 279.205 124.233 279.205 134.113V136.976H257.727V134.113C257.727 117.074 266.318 101.181 280.493 91.8741L284.645 89.1536C290.23 85.4309 293.523 79.2741 293.523 72.5445C293.523 66.8484 291.26 61.3856 287.232 57.3578C283.204 53.33 277.742 51.0673 272.045 51.0673C266.349 51.0673 260.887 53.33 256.859 57.3578C252.831 61.3856 250.568 66.8484 250.568 72.5445V79.7036ZM114.545 129.817C152.775 129.817 229.091 149.004 229.091 187.09V230.045H0V187.09C0 149.004 76.3159 129.817 114.545 129.817ZM114.545 0.953613C129.735 0.953613 144.303 6.98768 155.043 17.7284C165.784 28.4691 171.818 43.0367 171.818 58.2263C171.818 73.416 165.784 87.9836 155.043 98.7243C144.303 109.465 129.735 115.499 114.545 115.499C99.3558 115.499 84.7882 109.465 74.0475 98.7243C63.3068 87.9836 57.2727 73.416 57.2727 58.2263C57.2727 43.0367 63.3068 28.4691 74.0475 17.7284C84.7882 6.98768 99.3558 0.953613 114.545 0.953613ZM114.545 157.022C72.0205 157.022 27.2045 177.926 27.2045 187.09V202.84H201.886V187.09C201.886 177.926 157.07 157.022 114.545 157.022ZM114.545 28.1582C106.571 28.1582 98.9229 31.326 93.284 36.9649C87.6452 42.6038 84.4773 50.2518 84.4773 58.2263C84.4773 66.2009 87.6452 73.8489 93.284 79.4878C98.9229 85.1266 106.571 88.2945 114.545 88.2945C122.52 88.2945 130.168 85.1266 135.807 79.4878C141.446 73.8489 144.614 66.2009 144.614 58.2263C144.614 50.2518 141.446 42.6038 135.807 36.9649C130.168 31.326 122.52 28.1582 114.545 28.1582Z" fill="white"/>
</svg>
