<svg width="315" height="158" viewBox="0 0 315 158" fill="none" xmlns="http://www.w3.org/2000/svg">
<path fill-rule="evenodd" clip-rule="evenodd" d="M60.2111 113.037C63.2444 119.757 63.8247 127.328 61.851 134.431C59.8772 141.534 55.4744 147.72 49.4093 151.912C43.3441 156.103 36.001 158.035 28.6585 157.37C21.316 156.704 14.4395 153.485 9.2263 148.272C4.01313 143.059 0.79365 136.182 0.128508 128.84C-0.536634 121.497 1.3947 114.154 5.58618 108.089C9.77767 102.024 15.9638 97.6209 23.0672 95.6471C30.1706 93.6734 37.7413 94.2537 44.4609 97.287L81.5368 60.2111C79.372 55.4135 78.4438 50.1499 78.8371 44.9013C79.2304 39.6526 80.9326 34.5861 83.7882 30.1647C86.6438 25.7433 90.5617 22.108 95.1841 19.5907C99.8066 17.0735 104.986 15.7546 110.249 15.7546C115.513 15.7546 120.692 17.0735 125.315 19.5907C129.937 22.108 133.855 25.7433 136.711 30.1647C139.566 34.5861 141.268 39.6526 141.662 44.9013C142.055 50.1499 141.127 55.4135 138.962 60.2111L176.038 97.287C180.112 95.4477 184.531 94.4964 189 94.4964C193.47 94.4964 197.889 95.4477 201.963 97.287L254.789 44.4609C251.756 37.7413 251.175 30.1706 253.149 23.0672C255.123 15.9638 259.526 9.77767 265.591 5.58619C271.656 1.3947 278.999 -0.536634 286.341 0.128508C293.684 0.79365 300.561 4.01313 305.774 9.2263C310.987 14.4395 314.206 21.316 314.871 28.6585C315.537 36.001 313.605 43.3441 309.414 49.4093C305.222 55.4744 299.036 59.8772 291.933 61.851C284.829 63.8247 277.259 63.2444 270.539 60.2111L217.713 113.037C219.878 117.835 220.806 123.098 220.413 128.347C220.019 133.596 218.317 138.662 215.462 143.084C212.606 147.505 208.688 151.14 204.066 153.658C199.443 156.175 194.264 157.494 189 157.494C183.737 157.494 178.558 156.175 173.935 153.658C169.313 151.14 165.395 147.505 162.539 143.084C159.684 138.662 157.981 133.596 157.588 128.347C157.195 123.098 158.123 117.835 160.288 113.037L123.212 75.9613C119.138 77.8006 114.719 78.7519 110.249 78.7519C105.78 78.7519 101.361 77.8006 97.287 75.9613L60.2111 113.037Z" fill="white"/>
</svg>
