<svg width="337" height="337" viewBox="0 0 337 337" fill="none" xmlns="http://www.w3.org/2000/svg">
<path d="M168.5 326C189.187 326.025 209.675 321.963 228.787 314.046C247.899 306.13 265.259 294.514 279.868 279.868C294.514 265.259 306.13 247.899 314.046 228.787C321.963 209.675 326.025 189.187 326 168.5C326.025 147.813 321.963 127.325 314.046 108.213C306.13 89.1008 294.514 71.7413 279.868 57.1318C265.259 42.4856 247.899 30.8705 228.787 22.9537C209.675 15.0369 189.187 10.9746 168.5 11.0001C147.813 10.9746 127.325 15.0369 108.213 22.9537C89.1008 30.8705 71.7413 42.4856 57.1318 57.1318C42.4856 71.7413 30.8705 89.1008 22.9537 108.213C15.0369 127.325 10.9746 147.813 11.0001 168.5C10.9746 189.187 15.0369 209.675 22.9537 228.787C30.8705 247.899 42.4856 265.259 57.1318 279.868C71.7413 294.514 89.1008 306.13 108.213 314.046C127.325 321.963 147.813 326.025 168.5 326Z" stroke="white" stroke-width="21" stroke-linejoin="round"/>
<path d="M105.5 168.5L152.75 215.75L247.25 121.25" stroke="white" stroke-width="21" stroke-linecap="round" stroke-linejoin="round"/>
</svg>
