<svg width="243" height="284" viewBox="0 0 243 284" fill="none" xmlns="http://www.w3.org/2000/svg">
<path d="M169.882 38.6318H204.421C211.749 38.6318 218.778 41.543 223.96 46.7249C229.141 51.9069 232.053 58.9351 232.053 66.2634V245.869C232.053 253.197 229.141 260.225 223.96 265.407C218.778 270.589 211.749 273.5 204.421 273.5H38.6316C31.3032 273.5 24.275 270.589 19.0931 265.407C13.9112 260.225 11 253.197 11 245.869V66.2634C11 58.9351 13.9112 51.9069 19.0931 46.7249C24.275 41.543 31.3032 38.6318 38.6316 38.6318H73.1711" stroke="white" stroke-width="21" stroke-linecap="round" stroke-linejoin="round"/>
<path d="M74.843 31.9309C76.3373 25.9531 79.7866 20.6463 84.643 16.8538C89.4993 13.0614 95.4839 11.0009 101.646 11H141.394C147.555 11.0009 153.54 13.0614 158.396 16.8538C163.253 20.6463 166.702 25.9531 168.196 31.9309L176.79 66.2632H66.2634L74.843 31.9309Z" stroke="white" stroke-width="21" stroke-linecap="round" stroke-linejoin="round"/>
<path d="M80.0781 149.159H162.973M80.0781 204.422H162.973" stroke="white" stroke-width="21" stroke-linecap="round"/>
</svg>
