<svg width="326" height="326" viewBox="0 0 326 326" fill="none" xmlns="http://www.w3.org/2000/svg">
<path d="M310 144.35C305.506 112.014 290.505 82.0529 267.308 59.0812C244.111 36.1094 214.005 21.4018 181.626 17.224C149.248 13.0461 116.394 19.6298 88.1256 35.9608C59.8571 52.2919 37.7422 77.4643 25.1875 107.6M16 34.1004V107.6H89.5M16 181.1C20.4938 213.436 35.4946 243.398 58.6918 266.37C81.8889 289.341 111.995 304.049 144.374 308.227C176.752 312.405 209.606 305.821 237.874 289.49C266.143 273.159 288.258 247.987 300.812 217.85M310 291.35V217.85H236.5" stroke="white" stroke-width="31.5" stroke-linecap="round" stroke-linejoin="round"/>
</svg>
