<svg width="201" height="201" viewBox="0 0 201 201" fill="none" xmlns="http://www.w3.org/2000/svg">
<path fill-rule="evenodd" clip-rule="evenodd" d="M149.715 8.95749C147.729 5.78417 144.803 3.30899 141.344 1.87649C137.886 0.443995 134.066 0.125458 130.418 0.965228L104.526 6.91262C101.873 7.5225 99.1155 7.5225 96.462 6.91262L70.5699 0.965228C66.9218 0.125458 63.1026 0.443995 59.6439 1.87649C56.1853 3.30899 53.2593 5.78417 51.2733 8.95749L37.1608 31.4798C35.7208 33.7839 33.7767 35.728 31.4727 37.1824L8.95033 51.2949C5.78248 53.2791 3.31093 56.2003 1.87874 59.6531C0.446553 63.1058 0.124773 66.9188 0.958063 70.5627L6.90546 96.4835C7.51313 99.1324 7.51313 101.884 6.90546 104.533L0.958063 130.44C0.121534 134.086 0.441695 137.902 1.87404 141.358C3.30638 144.813 5.77974 147.737 8.95033 149.722L31.4727 163.835C33.7767 165.275 35.7208 167.219 37.1752 169.523L51.2877 192.045C55.3486 198.54 63.0961 201.751 70.5699 200.037L96.462 194.09C99.1155 193.48 101.873 193.48 104.526 194.09L130.433 200.037C134.079 200.874 137.895 200.554 141.35 199.121C144.806 197.689 147.73 195.216 149.715 192.045L163.827 169.523C165.267 167.219 167.211 165.275 169.516 163.835L192.052 149.722C195.223 147.734 197.695 144.807 199.125 141.349C200.555 137.89 200.871 134.072 200.03 130.425L194.097 104.533C193.487 101.88 193.487 99.1226 194.097 96.4691L200.045 70.5627C200.882 66.9181 200.564 63.1031 199.135 59.6476C197.705 56.1921 195.235 53.2676 192.067 51.2805L169.53 37.168C167.229 35.7253 165.284 33.7807 163.842 31.4798L149.715 8.95749ZM142.471 68.3882C143.362 66.7504 143.583 64.8309 143.087 63.0337C142.591 61.2365 141.418 59.7016 139.813 58.752C138.209 57.8025 136.299 57.5122 134.485 57.9424C132.671 58.3725 131.094 59.4895 130.087 61.0584L92.4298 124.795L69.6915 103.021C69.0169 102.329 68.2098 101.779 67.3182 101.405C66.4266 101.031 65.4688 100.841 64.5019 100.845C63.5351 100.849 62.579 101.048 61.6907 101.43C60.8024 101.811 60.0001 102.368 59.3315 103.067C58.663 103.765 58.1421 104.591 57.7997 105.495C57.4573 106.399 57.3005 107.363 57.3387 108.329C57.3769 109.295 57.6093 110.244 58.022 111.118C58.4347 111.993 59.0192 112.775 59.7408 113.418L89.0313 141.485C89.8153 142.235 90.7584 142.797 91.7904 143.131C92.8223 143.465 93.9164 143.562 94.9909 143.414C96.0654 143.265 97.0925 142.877 97.9955 142.276C98.8986 141.675 99.6542 140.878 100.206 139.944L142.471 68.3882Z" fill="#026FBF"/>
</svg>
