<svg width="201" height="157" viewBox="0 0 201 157" fill="none" xmlns="http://www.w3.org/2000/svg">
<path d="M96.3181 124.766C96.3181 124.766 99.4507 138.101 116.805 148.018C127.744 154.266 150.744 160.749 162.487 152.071C175.854 142.188 178.736 132.405 179.372 128.804C180.009 125.202 178.099 115.268 178.099 115.268L156.104 107.445C156.104 107.445 119.737 116.324 119.1 116.324C118.48 116.34 96.3181 124.766 96.3181 124.766Z" fill="#E06767"/>
<path d="M178.167 133.092C178.653 131.836 178.954 130.763 179.172 129.876C175.286 128.837 170.78 127.162 166.692 125.42C167.027 125.269 167.362 125.118 167.681 124.951C169.691 123.929 171.667 122.739 173.091 120.997C174.632 119.121 175.336 116.692 175.252 114.263L156.105 107.445C156.105 107.445 119.738 116.324 119.101 116.324C118.465 116.324 96.319 124.75 96.3023 124.766C96.0175 124.867 98.3627 129.792 98.5135 130.043C100.641 134.013 105.532 139.541 108.883 142.54C108.883 142.54 107.342 138.988 110.256 137.665C111.546 137.079 113.104 137.364 114.427 137.883C117.744 139.206 121.899 144.299 132.285 149.76C139.337 153.479 146.59 156.326 148.936 156.226C152.068 156.092 157.747 154.567 157.747 154.567C157.747 154.567 150.51 153.881 138.885 148.47C135.367 146.828 122.351 140.429 121.111 136.861C120.76 135.856 119.503 134.08 121.781 133.075C125.266 131.517 134.764 139.709 142.922 143.461C152.638 147.917 163.225 151.485 163.225 151.485C164.364 150.614 165.436 149.743 166.441 148.872C161.03 147.481 155.737 145.572 150.628 143.344C145.535 141.133 140.543 138.268 135.936 135.119C133.005 133.109 130.978 129.725 134.127 129.289C139.287 128.569 145.954 133.477 152.638 136.945C158.668 140.077 165.905 141.518 172.689 142.372C173.56 141.283 174.984 139.206 174.984 139.206C174.984 139.206 172.421 138.771 164.85 137.096C161.533 136.358 158.316 135.404 155.368 133.745C154.598 133.31 151.901 130.546 155.586 129.273C159.271 127.999 162.772 130.529 168.334 131.819C173.912 133.142 178.117 133.209 178.167 133.092Z" fill="#B05353"/>
<path d="M190.916 63.7913C190.916 63.7913 190.497 50.2225 183.21 38.2117C176.928 27.8592 167.966 26.8039 167.966 26.8039C167.966 26.8039 166.191 20.2875 159.959 15.2956C153.728 10.3036 140.913 6.13248 140.913 6.13248C115.249 -5.42608 99.2515 4.03854 99.2515 4.03854C99.2515 4.03854 61.192 -5.00729 30.721 20.8403C30.721 20.8403 15.343 28.077 9.06122 41.7463C5.59365 49.318 7.08454 61.6638 7.08454 61.6638C-3.58619 74.06 -0.654674 93.6928 11.3227 103.526C17.035 108.2 24.0874 111.299 31.4413 112.086C34.3225 112.388 35.7799 111.701 36.986 114.632C38.7617 118.954 40.1521 123.393 43.7202 126.492C47.3552 129.642 51.5934 132.087 56.0995 133.762C64.8438 136.996 74.7273 137.347 83.5553 134.181C86.4868 133.126 95.8845 133.025 95.8845 133.025C95.8845 133.025 100.86 137.13 118.516 136.476C136.172 135.823 143.626 128.201 147.663 126.777C150.763 125.688 154.565 123.293 157.949 123.913C159.875 124.264 161.601 125.253 163.36 126.09C168.285 128.452 173.813 129.742 179.24 129.24C199.761 127.347 201.922 103.71 199.895 87.4612C197.851 71.0615 190.916 63.7913 190.916 63.7913Z" fill="#FFB3B3"/>
<path d="M39.348 95.8703C38.9292 96.8251 34.7414 105.971 31.2235 107.446C25.1427 110.009 15.7284 103.911 12.1268 102.236C11.4232 101.901 10.9542 102.738 10.9542 102.738C10.3679 103.492 11.8923 105.05 12.6628 105.603C15.6446 107.747 22.7975 112.605 28.1077 113.928C34.9591 115.637 40.1019 113.928 40.1019 113.928C40.1019 113.928 41.978 100.209 42.1288 99.5891C42.2796 98.9693 42.1288 93.5083 42.1288 93.5083L39.348 95.8703Z" fill="#EA6363"/>
<path d="M99.2 134.583C99.2 134.583 95.7492 134.046 90.4557 134.13C85.1622 134.214 77.7078 135.738 77.7078 135.738C77.7078 135.738 82.9677 133.343 85.313 131.249C87.6582 129.138 88.1272 124.012 87.7419 120.964C87.3399 117.848 86.2846 116.273 78.3108 114.615L102.199 113.291C94.1913 118.618 92.7339 129.591 99.2 134.583ZM171.516 84.1772C167.362 84.73 163.325 83.9426 159.74 81.8152C158.182 80.8771 158.015 78.6659 159.388 77.4765C160.31 76.6892 161.633 76.639 162.655 77.309C168.451 81.1116 174.347 78.6156 177.497 76.6557C185.537 71.647 189.524 62.7687 188.988 53.4548C190.596 56.3026 191.769 59.4519 192.054 62.7017C192.774 70.5917 187.095 76.7395 180.746 80.7096C177.714 82.6193 174.582 83.7751 171.516 84.1772Z" fill="#F07371"/>
<path d="M189.475 92.0342C187.666 92.0342 185.706 91.6489 183.846 90.5098C181.937 89.3372 180.865 87.7625 179.91 85.8193C179.122 84.228 178.017 83.2396 175.99 83.3904C174.566 83.5076 173.192 84.3117 171.768 84.1107C173.661 80.7604 176.693 78.0801 180.261 76.6228C181.903 75.9527 183.746 75.5339 185.421 76.0532C185.605 77.2258 184.818 78.3147 184.366 79.4203C183.578 81.3802 183.897 83.7254 185.17 85.4006C186.041 86.5397 187.699 87.7625 189.224 87.662C190.229 87.595 190.932 86.7407 191.921 86.6569C194.986 86.4392 195.757 90.9286 192.741 91.6321C191.77 91.8667 190.664 92.0342 189.475 92.0342ZM159.992 29.9195C158.769 30.0702 157.53 29.9362 156.893 28.8641C156.072 27.4737 156.759 25.7316 158.283 25.1955C162.488 23.7214 167.212 23.9894 171.316 25.6311C174.901 27.0717 177.062 29.5174 178.486 31.1758C179.91 32.8342 180.881 36.1175 180.881 36.1175C177.313 33.0185 175.286 28.1438 159.992 29.9195ZM143.944 26.6864C140.326 26.5357 143.844 26.6864 143.81 26.6864C138.081 26.6864 131.23 24.7097 130.308 18.1766C128.65 6.28304 146.206 10.9065 152.638 11.7943C152.638 11.7943 147.562 6.58457 140.912 6.13228C137.813 5.93126 134.614 6.01502 131.598 6.81909C128.281 7.70692 126.606 10.2029 123.591 11.4425C121.313 12.3638 118.716 12.0121 116.371 11.3085C114.21 10.6552 107.191 6.8861 106.99 11.5765C106.94 12.8664 107.861 13.972 109.118 14.1563C114.21 14.8766 121.246 17.1548 123.859 22.0127C125.065 24.2407 125.35 26.9377 124.646 29.3667C124.311 30.556 123.826 32.0804 124.814 32.8342C125.568 33.4205 126.724 33.0353 127.41 32.3652C128.097 31.6951 128.533 30.7905 129.22 30.1205C131.364 28.0098 133.307 29.5174 135.585 30.3215C138.215 31.2596 140.996 31.7119 143.793 31.7119C143.86 31.7119 138.885 31.2261 143.978 31.7119C149.053 32.1809 147.546 26.8372 143.944 26.6864ZM63.4195 21.2254C60.6387 18.7127 59.3154 8.92979 67.3058 3.88757C67.3058 3.88757 62.9504 4.03834 59.3154 6.8861C56.2163 9.31507 55.5965 13.5197 56.3336 17.9589C56.5179 19.098 55.63 20.1366 54.4742 20.0696C50.3198 19.8518 46.1822 20.6056 42.6141 22.2473C41.2572 22.8838 40.7882 24.5925 41.5922 25.8656C41.9238 26.3803 42.4319 26.7562 43.021 26.9228C43.6101 27.0893 44.2398 27.0351 44.7918 26.7702C48.7954 24.9275 54.6249 23.9392 59.2986 25.1118C64.0393 26.3011 67.3729 27.6748 71.0917 34.1241C71.7283 35.213 73.1019 35.5982 74.1405 34.8947C74.9446 34.3419 75.2796 33.3033 74.9445 32.3987C71.7618 23.6209 67.1718 24.6092 63.4195 21.2254ZM73.7887 51.3949C73.699 51.0743 73.5463 50.7748 73.3395 50.5138C73.1327 50.2528 72.876 50.0357 72.5844 49.8751C72.2928 49.7144 71.972 49.6135 71.641 49.5782C71.3099 49.5429 70.9751 49.574 70.6562 49.6695C66.6358 50.8756 60.823 50.5239 58.2265 47.9106C54.7589 39.8866 52.129 38.4628 47.9243 37.0389C46.2492 36.4693 44.574 37.9099 44.7415 39.6521C44.842 40.6404 45.4953 41.478 46.4502 41.7628C49.432 42.6506 52.4305 46.6542 53.9716 50.7416C55.3788 54.4437 55.5463 59.3184 52.3635 62.8027C51.5427 63.7073 51.3751 65.0139 52.0955 66.0023L52.129 66.0525C53.0503 67.3257 54.893 67.4262 55.9651 66.2703C57.1042 65.0307 58.2935 63.4225 58.7961 61.7976C59.3154 60.0722 59.1646 58.5311 60.6555 57.1575C62.3139 55.6163 63.8885 55.9346 65.882 55.9346C67.9257 55.9346 70.1201 55.1975 72.0465 54.5107C73.3532 54.0919 74.1907 52.7016 73.7887 51.3949ZM22.4285 74.11C21.8589 74.11 21.3061 74.0933 20.7198 74.043C12.9639 73.373 8.89323 67.7947 7.05056 61.6804C5.20789 55.5661 6.76578 48.9157 6.76578 48.9157C9.111 67.0074 18.5421 68.7998 21.1554 69.0343C26.0971 69.4699 30.821 67.3257 32.1109 64.0591C34.1546 58.8996 27.8895 53.8407 24.8239 50.7081C22.797 48.6309 22.0432 45.0964 22.5792 42.2989C22.8473 40.8582 23.4838 39.4511 24.6732 38.5298C25.8458 37.6252 28.7941 36.8043 28.392 39.3841C28.2748 40.1882 27.7555 40.8582 27.4372 41.5953C25.1422 46.8218 33.3002 51.663 35.5282 55.5326C37.3541 58.6651 38.1582 62.451 36.7845 65.9018C34.8414 70.8267 28.9616 74.11 22.4285 74.11Z" fill="#F07371"/>
<path d="M20.6356 72.7699C21.9925 72.9374 23.3829 72.7029 24.6057 72.0998C25.7784 71.5303 26.8337 70.6257 28.1236 70.5252C28.7434 70.4917 29.5139 70.8602 29.4134 71.4633C29.3799 71.681 30.8038 72.0831 30.6195 72.2003C27.286 74.2775 18.8432 76.338 24.6728 91.2971C25.1418 92.4865 24.7733 93.8266 23.6844 94.4799C22.4113 95.2505 20.7194 94.7479 20.1163 93.391C18.5249 89.89 17.7544 86.0204 17.8046 82.1675C17.8549 78.4152 18.2402 75.1319 15.7274 71.9993C15.4594 71.681 15.1746 71.2288 15.3924 70.877C15.5264 70.6592 15.7944 70.5754 16.0457 70.5084C17.0843 70.2404 18.1899 69.9556 19.2453 70.1734C19.7143 70.2739 24.9575 73.1719 25.0078 73.0714M170.076 96.9591C166.609 96.5403 163.04 96.7916 159.757 98.0312C156.976 99.0866 154.899 101.214 151.7 100.51C149.79 100.092 148.098 98.8688 146.909 97.3109C144.396 94.0443 144.731 90.6103 145.669 86.8914C146.607 83.2061 146.507 78.9345 144.848 75.4669C144.413 74.5456 143.676 73.7247 142.721 73.3897C141.749 73.0547 140.56 73.3394 139.99 74.1938C139.421 75.0649 139.639 76.2207 139.84 77.2426C140.493 80.3751 141.33 83.7589 140.392 86.8244C139.505 89.7392 138.282 92.3524 136.188 94.5972C132.218 98.8688 126.455 100.829 121.48 99.5724C117.811 98.651 114.846 96.088 112.853 92.1682C112.149 89.1026 111.412 85.1158 107.61 84.6802C106.839 84.5965 106.001 84.7137 105.415 85.1995C104.829 85.7021 104.561 86.5062 104.561 87.2767C104.561 89.2032 106.404 90.6438 106.739 92.5367C107.794 98.3327 103.941 104.966 98.0948 108.183C93.5718 110.679 81.1589 112.086 70.0359 102.755C69.5669 102.353 69.5669 101.583 69.1146 101.164C68.8131 100.896 68.4278 100.728 68.0425 100.661C66.3841 100.343 64.6587 101.918 64.8094 103.593C64.9435 105.117 66.1998 106.29 67.3222 107.328C70.2369 110.042 68.9303 111.131 68.4278 112.588C68.3105 112.957 68.0927 113.292 68.0592 113.677C67.9587 114.749 69.6004 114.397 70.6725 114.314C71.7446 114.23 72.7162 113.644 73.7548 113.342C75.0614 112.974 81.0417 115.168 82.2143 115.419C85.6149 116.156 86.7875 116.491 89.719 116.491C93.3876 116.491 96.5034 118.384 99.1836 115.872C103.003 112.304 105.968 109.975 109.352 108.819C111.027 108.25 113.037 107.965 114.444 109.054C115.449 109.824 115.902 111.114 116.253 112.32C116.974 114.8 117.51 117.329 118.565 119.691C119.62 122.036 121.296 124.231 123.641 125.286C124.378 125.621 125.216 125.839 126.02 125.655C126.824 125.47 127.527 124.783 127.544 123.979C127.561 123.427 127.276 122.924 126.974 122.472C125.819 120.629 124.445 118.92 123.423 117.011C122.401 115.101 121.731 112.873 122.15 110.746C122.921 106.809 127.477 105.703 130.744 104.715C133.876 103.76 137.009 101.968 140.376 102.152C142.486 102.269 146.959 104.732 148.299 106.373C148.567 106.709 148.684 107.127 148.751 107.563C149.321 111.097 146.724 114.28 144.262 116.86C143.826 117.312 143.374 117.999 143.743 118.518C143.877 118.703 144.078 118.803 144.279 118.87C146.054 119.557 148.132 118.954 149.639 117.798C152.956 115.285 154.112 110.98 156.943 107.998C159.271 105.569 162.404 103.978 165.57 102.939C176.894 99.2206 177.48 108.132 179.507 113.124C181.534 118.116 184.533 114.665 184.566 113.292C184.683 106.776 180.512 98.1987 170.076 96.9591Z" fill="#F07371"/>
<path d="M64.0223 123.41C62.2969 123.31 61.1578 121.517 61.8613 119.926C62.9837 117.38 65.0944 114.85 67.8249 112.907C71.9793 109.959 76.1337 109.423 80.3048 110.612L81.1591 114.867C78.4621 114.096 73.6377 114.951 70.7397 117.011C68.6457 118.502 67.2051 120.328 66.5015 121.852C66.0492 122.841 65.0944 123.477 64.0223 123.41Z" fill="#F07371"/>
<path d="M172.506 46.202C172.187 44.0745 170.529 42.0978 168.385 42.0308C167.33 41.9973 166.157 42.5501 165.872 43.572C165.738 44.0243 165.805 44.5268 165.822 44.9959C165.956 48.4802 163.158 51.8472 159.708 52.333C155.804 52.8858 152.923 50.4736 149.975 48.4634C147.161 46.5538 143.643 45.2639 140.393 44.3426C131.732 41.9136 124.278 43.5385 118.599 50.6914C116.489 53.3549 114.478 56.2697 111.513 57.9113C106.856 60.491 97.0233 60.6753 94.1253 55.6163C90.3227 48.9995 90.1887 28.6631 102.384 30.9748C106.153 31.6951 108.95 34.9617 109.218 37.3907C109.386 38.9318 108.431 40.2719 107.208 41.3105C106.758 41.697 106.46 42.2313 106.368 42.8177C106.275 43.4041 106.395 44.0041 106.706 44.5101C107.51 45.8334 109.319 46.1182 110.492 45.1299C113.926 42.1816 114.462 39.0826 114.21 36.8379C113.423 29.685 105.366 25.6478 98.9665 25.4636C97.5593 25.4133 95.9344 24.961 95.3984 23.6376C95.1639 23.0681 95.1974 22.4483 95.1471 21.8452C94.8121 17.5736 90.4399 12.9334 87.0226 10.7222C85.7662 9.90139 84.0743 10.4374 83.421 11.7776C82.8682 12.9334 83.3038 14.2903 84.3759 14.9939C87.6257 17.1381 89.6023 20.2538 90.2557 24.2742C90.9927 28.8976 89.9876 33.6216 88.0445 37.8262C87.0729 39.9369 85.8835 41.9806 84.4931 43.8568C83.3038 45.4817 81.6119 46.5705 80.8413 48.5137C80.7575 48.7315 80.6738 48.966 80.7408 49.1838C80.858 49.6025 81.3773 49.7198 81.8129 49.7365C83.0525 49.7868 84.2921 49.5188 85.3977 48.9995C84.7612 51.462 86.4028 53.8574 87.7597 56.0016C89.1166 58.1458 90.2054 61.0606 88.6643 63.0875C88.5973 63.1713 88.5135 63.255 88.4465 63.3556C85.1464 64.7459 81.9636 66.6389 79.4844 69.2521C75.2128 73.775 72.0467 77.8456 65.7984 79.8558C60.2704 81.6482 54.1226 81.4305 48.7453 79.2695C47.7068 78.8507 46.6514 78.3649 45.5291 78.3984C44.4067 78.4319 43.2173 79.2193 43.1838 80.3416C43.1671 80.9112 43.4519 81.4305 43.7031 81.9498C46.5509 87.729 41.3244 91.4814 39.0965 96.5069C37.0025 101.197 35.9304 106.34 35.9304 111.483C35.9304 117.094 37.8568 121.182 44.8087 128.318C47.958 131.534 52.0789 133.444 55.5465 134.566C56.6353 134.918 57.3221 133.427 56.3505 132.807C49.1976 128.251 48.0753 124.214 45.8976 120.06C40.6711 110.059 46.3834 94.8149 56.2165 87.0757C60.0191 84.094 65.4131 84.3285 70.003 85.9031C74.928 87.595 77.8428 91.2134 81.5449 94.5804C82.55 95.5018 83.8398 96.4901 85.1297 96.0881C86.3023 95.7363 86.8886 94.3459 86.7546 93.1398C86.6206 91.9337 85.9338 90.8616 85.2805 89.8397C84.5601 88.7174 83.8398 87.595 83.1028 86.4727C82.1479 84.9985 81.1596 83.4574 80.858 81.7152C80.523 79.8223 82.1982 73.2725 98.1121 69.2186C100.809 68.5318 103.556 68.8333 106.27 69.6039C109.922 70.6425 112.535 73.3227 115.601 75.4167C116.455 76.003 117.393 76.6228 118.432 76.6563C119.738 76.7065 121.011 75.7182 121.28 74.4283C121.648 72.6527 120.308 71.0613 119.42 69.4866C116.472 64.2936 119.906 57.3585 124.245 54.0417C128.131 51.0934 133.24 50.0046 138.081 50.5071C145.452 51.2609 152.722 56.1859 154.414 63.3891C154.799 65.014 155.268 67.1079 156.927 67.3257C158.769 67.5769 159.758 65.1145 159.574 63.255C159.389 61.3956 158.786 59.3017 159.942 57.8275C160.478 57.1575 161.282 56.7722 162.07 56.4204C164.331 55.4321 166.693 54.6113 168.72 53.1874C170.747 51.7802 172.439 49.6193 172.589 47.1568C172.573 46.872 172.556 46.537 172.506 46.202Z" fill="#EA6363"/>
<path d="M81.7947 49.7193C83.0343 49.7696 84.2739 49.5016 85.3795 48.9823C84.743 51.4447 86.3846 53.8402 87.7415 55.9844C88.7298 57.5591 90.1035 60.3566 88.6126 63.2211C88.6126 63.2211 90.8573 61.9647 94.4924 60.9094C98.1274 59.854 101.679 59.6195 101.679 59.6195C99.099 59.0835 95.2797 57.6261 94.1071 55.5991C90.3045 48.9823 90.1705 28.6459 102.366 30.9576C106.135 31.6779 108.932 34.9445 109.2 37.3735C109.368 38.9146 108.413 40.2547 107.19 41.2933C106.739 41.6798 106.441 42.2141 106.349 42.8005C106.257 43.3869 106.377 43.9869 106.687 44.4929C107.492 45.8162 109.301 46.101 110.473 45.1127C113.907 42.1644 114.443 39.0654 114.192 36.8207C113.405 29.6677 105.347 25.6306 98.9483 25.4464C97.5411 25.3961 95.9162 24.9438 95.3802 23.6204C95.1457 23.0509 95.1792 22.4311 95.1289 21.828C94.7939 17.5564 90.4217 12.9162 87.0044 10.705C85.7481 9.88418 84.0561 10.4202 83.4028 11.7603C82.85 12.9162 83.2856 14.2731 84.3577 14.9766C87.6075 17.1208 89.5842 20.2366 90.2375 24.257C90.9745 28.8804 89.9694 33.6044 88.0263 37.809C87.0547 39.9197 85.8653 41.9634 84.4749 43.8395C83.2856 45.4644 81.5937 46.5533 80.8231 48.4965C80.7393 48.7142 80.6556 48.9488 80.7226 49.1665C80.8399 49.5853 81.3591 49.7026 81.7947 49.7193Z" fill="#F07371"/>
</svg>
