<svg width="201" height="201" viewBox="0 0 201 201" fill="none" xmlns="http://www.w3.org/2000/svg">
<path d="M148.562 123.135C148.562 131.885 151.051 135.375 157.562 135.375C172.072 135.375 181.312 116.885 181.312 86.1354C181.312 39.1354 147.062 16.6354 104.301 16.6354C60.3116 16.6354 20.3012 46.1354 20.3012 101.885C20.3012 155.135 55.3012 184.135 109.051 184.135C127.301 184.135 139.551 182.135 158.291 175.885L162.312 192.625C143.812 198.635 124.041 200.375 108.801 200.375C38.3012 200.375 0.540771 161.625 0.540771 101.875C0.540771 41.625 44.3012 0.625 104.551 0.625C167.301 0.625 200.541 38.125 200.541 84.125C200.541 123.125 188.301 152.875 149.801 152.875C132.291 152.875 120.801 145.875 119.301 130.365C114.801 147.615 102.801 152.875 86.5408 152.875C64.7908 152.875 46.5408 136.115 46.5408 102.375C46.5408 68.375 62.5512 47.375 91.3012 47.375C106.551 47.375 116.051 53.375 120.28 62.875L127.541 49.625H148.541V123.135H148.562ZM117.822 90.1354C117.822 76.3958 107.562 70.6354 99.0616 70.6354C89.8116 70.6354 79.572 78.125 79.572 100.135C79.572 117.635 87.322 127.385 99.0616 127.385C107.312 127.385 117.822 122.135 117.822 107.635V90.1354Z" fill="#E65100"/>
</svg>
