<svg width="200" height="213" viewBox="0 0 200 213" fill="none" xmlns="http://www.w3.org/2000/svg">
<path d="M106.952 155.364C107.432 153.446 107.432 151.048 107.432 148.65C107.432 146.253 107.432 144.335 106.952 141.937L120.379 132.347C121.817 131.388 122.297 129.47 121.338 128.031L108.391 105.973C107.432 104.535 105.993 104.055 104.554 104.535L89.6894 111.727C86.3328 108.85 82.4966 106.932 78.181 105.014L76.7424 88.7105C76.7424 87.2719 75.3039 85.8334 73.8653 85.8334H48.4508C47.0123 85.8334 45.5737 87.2719 45.5737 88.7105L43.6556 105.494C39.34 106.932 35.9833 109.33 32.1472 112.207L17.2821 105.494C15.8435 105.014 13.9255 105.494 13.4459 106.932L0.498948 128.99C-0.460089 130.429 0.0194286 132.347 1.45798 133.306L14.8845 142.896C14.405 144.814 14.405 147.212 14.405 149.609C14.405 152.007 14.405 153.925 14.8845 156.323L1.45798 165.913C0.0194286 166.872 -0.460089 168.79 0.498948 170.229L13.4459 192.286C14.405 193.725 15.8435 194.205 17.2821 193.725L32.1472 187.012C35.5038 189.889 39.34 191.807 43.6556 193.725L45.0942 210.029C45.0942 211.467 46.5327 212.906 47.9713 212.906H73.3858C74.8243 212.906 76.2629 211.467 76.2629 210.029L77.7014 193.725C82.0171 192.287 85.3737 189.889 89.2099 187.012L104.075 193.725C105.514 194.205 107.432 193.725 107.911 192.286L120.858 170.229C121.817 168.79 121.338 166.872 119.899 165.913L106.952 155.364ZM60.9183 172.626C47.4918 172.626 36.9424 162.077 36.9424 148.65C36.9424 135.224 47.4918 124.674 60.9183 124.674C74.3448 124.674 84.8942 135.224 84.8942 148.65C84.8942 162.077 74.3448 172.626 60.9183 172.626Z" fill="#E65100"/>
<path d="M185.116 63.776C185.595 61.3784 185.595 59.4603 185.595 57.5422C185.595 55.6242 185.595 53.7061 185.116 51.3085L197.104 42.6772C198.542 41.7181 198.542 40.2796 198.063 38.841L186.075 18.2217C185.116 16.7832 183.677 16.3036 182.239 17.2627L168.333 23.4964C164.976 21.0988 161.619 19.1807 157.783 17.2627L156.345 2.39759C156.824 0.959037 155.865 0 154.427 0H130.93C129.492 0 128.053 0.959037 128.053 2.39759L126.614 17.2627C122.778 18.7012 119.422 20.6193 116.065 23.4964L102.159 17.2627C100.72 16.7832 99.2819 17.2627 98.3228 18.2217L86.3349 38.841C85.3758 40.2796 85.8554 41.7181 87.2939 42.6772L99.2819 51.3085V57.5422C99.2819 59.4603 99.2819 61.3784 99.7614 63.776L87.7734 72.4073C86.3349 73.3663 86.3349 74.8049 86.8144 76.2435L98.8024 96.8628C99.7614 98.3013 101.2 98.7808 102.639 97.8218L116.545 91.5881C119.901 93.9856 123.258 95.9037 127.094 97.8218L128.533 112.687C128.533 114.125 129.971 115.084 131.41 115.084H154.906C156.345 115.084 157.783 114.125 157.783 112.687L159.222 97.8218C163.058 96.3832 166.414 94.4652 169.771 91.5881L183.677 97.8218C185.116 98.3013 186.554 97.8218 187.513 96.8628L199.501 76.2435C200.46 74.8049 199.981 73.3663 198.542 72.4073L185.116 63.776ZM142.439 81.5182C129.012 81.5182 118.463 70.9688 118.463 57.5422C118.463 44.1157 129.012 33.5663 142.439 33.5663C155.865 33.5663 166.414 44.1157 166.414 57.5422C166.414 70.9688 155.865 81.5182 142.439 81.5182Z" fill="#FFA000"/>
</svg>
