<svg width="201" height="199" viewBox="0 0 201 199" fill="none" xmlns="http://www.w3.org/2000/svg">
<path d="M65.0181 39.599H47.1963C62.0478 26.7277 79.8695 19.797 99.6715 19.797C102.642 19.797 105.612 19.797 108.582 20.7871C113.533 21.7772 118.483 17.8168 119.473 11.8762C120.464 6.92569 116.503 1.97519 110.563 0.985093C106.602 -0.0050058 103.632 -0.00500488 99.6715 -0.00500488C75.9091 -0.00500488 53.1369 8.90589 35.3151 23.7574V9.89598C35.3151 3.95539 31.3547 -0.00500488 25.4141 -0.00500488C19.4735 -0.00500488 15.5131 3.95539 15.5131 9.89598V49.4999C15.5131 55.4405 19.4735 59.4009 25.4141 59.4009H65.0181C70.9586 59.4009 74.919 55.4405 74.919 49.4999C74.919 43.5593 70.9586 39.599 65.0181 39.599ZM50.1666 123.757C44.226 123.757 40.2656 127.718 40.2656 133.658V151.48C27.3943 136.629 20.4636 118.807 20.4636 99.0049C20.4636 96.0346 20.4636 93.0643 21.4537 90.094C22.4438 85.1435 18.4834 80.193 12.5428 79.2029C7.59231 78.2128 2.64182 82.1732 1.65172 88.1138C0.66162 92.0742 0.661621 95.0445 0.661621 99.0049C0.661621 122.767 9.57251 145.54 24.424 163.361H10.5626C4.62202 163.361 0.661621 167.322 0.661621 173.262C0.661621 179.203 4.62202 183.163 10.5626 183.163H50.1666C53.1369 183.163 56.1072 181.183 58.0874 179.203C58.0874 178.213 59.0775 177.223 59.0775 176.233V133.658C60.0676 127.718 56.1072 123.757 50.1666 123.757ZM188.78 34.6485C194.721 34.6485 198.681 30.6881 198.681 24.7475C198.681 18.8069 194.721 14.8465 188.78 14.8465H147.196C146.206 14.8465 145.216 15.8366 144.226 15.8366C143.236 16.8267 142.246 16.8267 142.246 17.8168C142.246 18.8069 141.256 19.797 141.256 19.797V62.3712C141.256 68.3118 145.216 72.2722 151.157 72.2722C157.097 72.2722 161.058 68.3118 161.058 62.3712V46.5296C173.929 60.391 180.86 79.2029 180.86 99.0049C180.86 101.975 180.86 104.945 179.87 107.916C178.879 112.866 182.84 117.817 188.78 118.807H189.771C194.721 118.807 198.681 114.846 199.672 109.896C199.672 105.936 200.662 102.965 200.662 99.0049C200.662 75.2425 191.751 52.4702 176.899 34.6485H188.78ZM181.85 143.559L178.879 140.589C177.889 139.599 176.899 139.599 175.909 139.599H134.325C128.384 139.599 124.424 143.559 124.424 149.5C124.424 155.441 128.384 159.401 134.325 159.401H152.147C138.285 172.272 119.473 179.203 99.6715 179.203C96.7012 179.203 93.7309 179.203 90.7606 178.213C85.8101 177.223 80.8596 181.183 79.8695 187.124C78.8794 193.064 82.8398 197.025 88.7804 198.015C92.7408 198.015 95.7111 199.005 99.6715 199.005C123.434 199.005 146.206 190.094 164.028 175.243V188.114C164.028 194.054 167.988 198.015 173.929 198.015C179.87 198.015 183.83 194.054 183.83 188.114V148.51C183.83 146.53 182.84 144.549 181.85 143.559Z" fill="#026FBF"/>
</svg>
